<svg xmlns="http://www.w3.org/2000/svg" xmlns:osb="http://www.openswatchbook.org/uri/2009/osb" xmlns:svg="http://www.w3.org/2000/svg" id="svg862" width="267" height="77" fill="none" enable-background="new" version="1.1" viewBox="0 0 267 77"><metadata id="metadata866"/><g id="g851" clip-path="url(#clip0)" style="stroke:#000;stroke-opacity:1"><path id="path815" d="m 112.774,64.4458 h -1.641 v -9.381 h 1.641 z" style="fill:#fff;fill-opacity:1;stroke:#fff;stroke-opacity:1"/><path id="path817" d="m 128.01,55.0648 v 7.7027 c 0,1.0225 -0.815,1.8339 -1.842,1.8339 -0.513,0 -0.971,-0.2 -1.317,-0.5446 l -7.735,-7.8139 v 8.214 h -1.641 v -7.7027 c 0,-1.0225 0.815,-1.8339 1.842,-1.8339 0.513,0 0.971,0.2 1.317,0.5446 l 7.735,7.8139 v -8.214 z" style="fill:#fff;fill-opacity:1;stroke:#fff;stroke-opacity:1"/><path id="path819" d="m 142.543,56.6987 h -5.324 v 7.7471 h -1.641 v -7.7471 h -5.324 v -1.6339 h 12.289 z" style="fill:#fff;fill-opacity:1;stroke:#fff;stroke-opacity:1"/><path id="path821" d="m 156.864,64.4458 h -9.867 c -1.418,0 -2.556,-1.1337 -2.556,-2.5453 v -4.2793 c 0,-1.4116 1.138,-2.5454 2.556,-2.5454 h 9.867 v 1.6339 h -10.793 v 2.2453 h 10.793 v 1.6339 h -10.793 v 2.2452 h 10.793 z" style="fill:#fff;fill-opacity:1;stroke:#fff;stroke-opacity:1"/><path id="path823" d="m 169.544,64.4458 h -7.411 c -1.418,0 -2.556,-1.1337 -2.556,-2.5453 v -6.8357 h 1.64 v 7.7471 h 8.327 z" style="fill:#fff;fill-opacity:1;stroke:#fff;stroke-opacity:1"/><path id="path825" d="m 181.41,64.4458 h -7.412 c -1.418,0 -2.556,-1.1337 -2.556,-2.5453 v -6.8357 h 1.641 v 7.7471 h 8.327 z" style="fill:#fff;fill-opacity:1;stroke:#fff;stroke-opacity:1"/><path id="path827" d="m 185.282,64.4458 h -1.64 v -9.381 h 1.64 z" style="fill:#fff;fill-opacity:1;stroke:#fff;stroke-opacity:1"/><path id="path829" d="m 200.43,61.9005 c 0,1.4116 -1.139,2.5453 -2.556,2.5453 h -7.312 c -1.417,0 -2.556,-1.1337 -2.556,-2.5453 v -4.2793 c 0,-1.4116 1.139,-2.5454 2.556,-2.5454 h 9.868 v 1.6339 h -10.794 v 6.1244 h 9.153 v -2.2563 h -4.8 v -1.6339 h 6.441 z" style="fill:#fff;fill-opacity:1;stroke:#fff;stroke-opacity:1"/><path id="path831" d="m 215.565,64.4458 h -9.867 c -1.418,0 -2.556,-1.1337 -2.556,-2.5453 v -4.2793 c 0,-1.4116 1.138,-2.5454 2.556,-2.5454 h 9.867 v 1.6339 h -10.794 v 2.2453 h 10.794 v 1.6339 h -10.794 v 2.2452 h 10.794 z" style="fill:#fff;fill-opacity:1;stroke:#fff;stroke-opacity:1"/><path id="path833" d="m 230.812,55.0648 v 7.7027 c 0,1.0225 -0.815,1.8339 -1.841,1.8339 -0.514,0 -0.972,-0.2 -1.318,-0.5446 l -7.735,-7.8139 v 8.214 h -1.641 v -7.7027 c 0,-1.0225 0.815,-1.8339 1.842,-1.8339 0.514,0 0.971,0.2 1.317,0.5446 l 7.735,7.8139 v -8.214 z" style="fill:#fff;fill-opacity:1;stroke:#fff;stroke-opacity:1"/><path id="path835" d="m 245.948,64.4458 h -9.867 c -1.418,0 -2.556,-1.1337 -2.556,-2.5453 v -4.2793 c 0,-1.4116 1.138,-2.5454 2.556,-2.5454 h 9.867 v 1.6339 h -10.793 v 6.1244 h 10.793 z" style="fill:#fff;fill-opacity:1;stroke:#fff;stroke-opacity:1"/><path id="path837" d="m 260.448,64.4458 h -9.867 c -1.418,0 -2.557,-1.1337 -2.557,-2.5453 v -4.2793 c 0,-1.4116 1.139,-2.5454 2.557,-2.5454 h 9.867 v 1.6339 h -10.794 v 2.2453 h 10.794 v 1.6339 h -10.794 v 2.2452 h 10.794 z" style="fill:#fff;fill-opacity:1;stroke:#fff;stroke-opacity:1"/><path id="path839" d="m 52.5552,62.3451 c 0,1.4116 -1.1386,2.5453 -2.5561,2.5453 h -9.8673 v -9.381 h 9.8673 c 1.4175,0 2.5561,1.1337 2.5561,2.5453 z m -1.6297,0.9226 v -6.1244 h -9.1528 v 6.1244 z" style="fill:#fff;fill-opacity:1;stroke:#fff;stroke-opacity:1"/><path id="path841" d="m 69.4879,64.8905 h -2.065 l -1.5738,-2.2119 h -8.5724 l -1.5516,2.2119 h -2.0649 l 6.1614,-8.5808 c 0.4018,-0.5447 1.0381,-0.9559 1.7524,-0.9559 0.7367,0 1.3506,0.4112 1.7413,0.9559 z m -4.8108,-3.8347 -3.1031,-4.4349 -3.103,4.4349 z" style="fill:#fff;fill-opacity:1;stroke:#fff;stroke-opacity:1"/><path id="path843" d="m 79.9246,57.1433 h -5.3242 v 7.7471 h -1.6409 v -7.7471 h -5.3242 v -1.6339 h 12.2893 z" style="fill:#fff;fill-opacity:1;stroke:#fff;stroke-opacity:1"/><path id="path845" d="m 93.8883,64.8905 h -2.065 L 90.2495,62.6897 H 81.677 l -1.5515,2.2119 h -2.065 l 6.1615,-8.5808 c 0.3907,-0.5446 1.0269,-0.9559 1.7413,-0.9559 0.7366,0 1.3506,0.4113 1.7412,0.9559 z m -4.8108,-3.8347 -3.1031,-4.4349 -3.103,4.4349 z" style="fill:#fff;fill-opacity:1;stroke:#fff;stroke-opacity:1"/><path id="path847" d="m 102.784,58.6549 6.943,-11.9708 H 92.3813 l 6.9428,11.9708 c 0.7699,1.3227 2.6899,1.3227 3.4599,0 z" style="fill:#ff8c00;fill-opacity:1;stroke:#ff8c00;stroke-opacity:1"/><path id="path849" d="m 99.3241,63.3788 -6.9428,11.9709 h 17.3457 l -6.943,-11.9709 c -0.77,-1.3227 -2.69,-1.3227 -3.4599,0 z" style="fill:#ff8c00;fill-opacity:1;stroke:#ff8c00;stroke-opacity:1"/></g><path id="path855" fill="#fff" d="M13.7365 54.7H16.6735C17.9968 54.7 18.9685 54.9246 19.5886 55.3738C20.2087 55.823 20.5188 56.5017 20.5188 57.4099C20.5188 58.03 20.3283 58.5476 19.9475 58.9626C19.5715 59.3728 19.0197 59.6365 18.2922 59.7537V59.7976C19.1467 59.9246 19.7741 60.1956 20.1745 60.6106C20.5798 61.0208 20.7824 61.5945 20.7824 62.3318C20.7824 63.3181 20.4553 64.0774 19.801 64.6096C19.1467 65.1418 18.219 65.408 17.0178 65.408H13.7365V54.7ZM14.4836 59.468H16.842C17.8479 59.468 18.5778 59.302 19.0319 58.97C19.4909 58.6331 19.7204 58.1082 19.7204 57.3953C19.7204 56.6824 19.4616 56.1648 18.9441 55.8425C18.4314 55.5203 17.6648 55.3591 16.6442 55.3591H14.4836V59.468ZM14.4836 60.1272V64.7488H17.0031C18.9856 64.7488 19.9768 63.9431 19.9768 62.3318C19.9768 60.8621 18.9318 60.1272 16.842 60.1272H14.4836ZM25.6018 60.5593L28.7365 54.7H29.5422L25.9753 61.2698V65.408H25.2063V61.3284L21.6247 54.7H22.4816L25.6018 60.5593Z" style="fill-opacity:1;fill:#fff"/><defs id="defs860"><linearGradient id="linearGradient961" osb:paint="solid"><stop style="stop-color:#ed3552;stop-opacity:1" id="stop959" offset="0"/></linearGradient><linearGradient id="linearGradient4644" osb:paint="solid"><stop style="stop-color:#fff;stop-opacity:1" id="stop4642" offset="0"/></linearGradient><linearGradient id="linearGradient4616" osb:paint="solid"><stop style="stop-color:#fcfcfc;stop-opacity:1" id="stop4614" offset="0"/></linearGradient><linearGradient id="linearGradient4610" osb:paint="solid"><stop style="stop-color:#fcfcfc;stop-opacity:1" id="stop4608" offset="0"/></linearGradient><linearGradient id="linearGradient4604" osb:paint="solid"><stop style="stop-color:#fcfcfc;stop-opacity:1" id="stop4602" offset="0"/></linearGradient><linearGradient id="linearGradient4598" osb:paint="solid"><stop style="stop-color:#fcfcfc;stop-opacity:1" id="stop4596" offset="0"/></linearGradient><linearGradient id="linearGradient4592" osb:paint="solid"><stop style="stop-color:#fcfcfc;stop-opacity:1" id="stop4590" offset="0"/></linearGradient><linearGradient id="linearGradient4586" osb:paint="solid"><stop style="stop-color:#000;stop-opacity:1" id="stop4584" offset="0"/></linearGradient><clipPath id="clip0"><rect id="rect857" width="220.316" height="28.666" fill="#fff" transform="translate(40.1318 46.6841)"/></clipPath></defs><g id="g5823"><path style="opacity:1;fill:#fff;fill-opacity:1;stroke:#fff;stroke-width:1.00157475;stroke-miterlimit:4;stroke-dasharray:none;stroke-opacity:1" id="path853" d="m 32.9461,31.9956 c 0,3.8779 -1.1065,6.8482 -3.3194,8.9106 C 27.4246,42.9688 24.2395,44 20.0716,44 H 13.4007 V 20.4424 h 7.396 c 3.8457,0 6.832,1.0151 8.9589,3.0454 2.127,2.0303 3.1905,4.8662 3.1905,8.5078 z m -5.1885,0.1289 c 0,-5.0596 -2.2344,-7.5893 -6.7031,-7.5893 H 18.3958 V 39.875 h 2.143 c 4.8125,0 7.2188,-2.5835 7.2188,-7.7505 z M 52.2498,44 50.5418,38.3926 H 41.9534 L 40.2454,44 H 34.8636 L 43.178,20.3457 h 6.1069 L 57.6316,44 Z m -2.9004,-9.7969 c -1.5791,-5.081 -2.4707,-7.9546 -2.6748,-8.6206 -0.1934,-0.666 -0.333,-1.1924 -0.419,-1.5791 -0.3544,1.375 -1.3696,4.7749 -3.0454,10.1997 z M 69.7005,44 H 64.7054 V 24.5996 h -6.397 v -4.1572 h 17.789 v 4.1572 h -6.3969 z m 24.4438,0 -1.708,-5.6074 H 83.8479 L 82.1399,44 h -5.3818 l 8.3144,-23.6543 h 6.107 L 99.5262,44 Z m -2.9004,-9.7969 c -1.5791,-5.081 -2.4707,-7.9546 -2.6748,-8.6206 -0.1933,-0.666 -0.333,-1.1924 -0.4189,-1.5791 -0.3545,1.375 -1.3697,4.7749 -3.0454,10.1997 z"/><flowRoot id="flowRoot939" xml:space="preserve" style="font-style:normal;font-weight:400;font-size:40px;line-height:1.25;font-family:sans-serif;letter-spacing:0;word-spacing:0;fill:#000;fill-opacity:1;stroke:none"><flowRegion id="flowRegion941"><rect id="rect943" width="170.397" height="64.019" x="97.37" y="-6.953"/></flowRegion><flowPara id="flowPara945"/></flowRoot><text id="text5812" x="89.064" y="50.061" transform="scale(1.1358239,0.88041817)" xml:space="preserve" style="font-style:normal;font-variant:normal;font-weight:400;font-stretch:normal;font-size:37.86079407px;line-height:1.25;font-family:sans-serif;-inkscape-font-specification:'sans-serif, Normal';font-variant-ligatures:normal;font-variant-caps:normal;font-variant-numeric:normal;font-feature-settings:normal;text-align:start;letter-spacing:0;word-spacing:0;writing-mode:lr-tb;text-anchor:start;fill:#ff8c00;fill-opacity:1;stroke:none;stroke-width:1.13582397"><tspan id="tspan5818" x="89.064" y="50.061" style="fill:#ff8c00;fill-opacity:1;stroke-width:1.13582397">DELITO</tspan></text></g></svg>